<?xml version="1.0" encoding="utf-8"?>
<!-- Generator: Adobe Illustrator 24.1.0, SVG Export Plug-In . SVG Version: 6.00 Build 0)  -->
<svg version="1.1" xmlns="http://www.w3.org/2000/svg" xmlns:xlink="http://www.w3.org/1999/xlink" x="0px" y="0px"
	 viewBox="0 0 300 520" style="enable-background:new 0 0 300 520;" xml:space="preserve">
<style type="text/css">
	.st0{fill:#1A1A1A;stroke:#ADCE86;stroke-width:12;stroke-miterlimit:10;}
	.st1{fill:none;stroke:#ADCE86;stroke-width:6;stroke-miterlimit:10;}
</style>
<g id="Calque_1">
	<path class="st0" d="M265,9H105H35c-11,0-20,9-20,20v160c0,11,9,20,20,20h30c11,0,20,9,20,20v260c0,11,9,20,20,20h160
		c11,0,20-9,20-20V189V29C285,18,276,9,265,9z"/>
</g>
<g id="Calque_2">
	<line class="st1" x1="243.9" y1="74.5" x2="193.9" y2="74.5"/>
	<line class="st1" x1="241" y1="124" x2="241" y2="74"/>
	<line class="st1" x1="243.9" y1="122.5" x2="63.9" y2="122.5"/>
	<line class="st1" x1="59.5" y1="124.5" x2="92.5" y2="91.5"/>
	<line class="st1" x1="60.5" y1="121.2" x2="93.5" y2="154.2"/>
</g>
</svg>
